<svg width="536" height="128" viewBox="0 0 536 128" fill="none" xmlns="http://www.w3.org/2000/svg">
<rect width="128" height="128" rx="12" transform="matrix(-1 0 0 1 128 0)" fill="#ECF1F4"/>
<path d="M164.584 69.624H205.416V78.456H212.904V62.904H204.392C206.12 60.664 208.04 58.104 209.768 55.672L201.512 53.176C200.296 56.184 198.12 59.896 196.008 62.904H186.344L189.416 61.688C188.584 59.128 186.472 55.224 184.424 52.472L177.704 54.904C179.24 57.336 180.84 60.408 181.736 62.904H171.688L173.992 61.816C172.968 59.32 170.408 55.928 168.168 53.432L161.704 56.312C163.24 58.296 164.968 60.792 166.12 62.904H157.416V78.456H164.584V69.624ZM213.544 88.888H189.352C194.6 85.88 199.592 81.784 203.24 77.88L198.44 74.168L196.776 74.552H168.04V81.144H189.736C188.2 82.424 186.472 83.64 184.808 84.664H181.16V88.888H156.584V95.864H181.16V104.184C181.16 105.08 180.84 105.336 179.496 105.336C178.216 105.4 173.48 105.4 169.384 105.208C170.536 107.256 172.008 110.456 172.52 112.632C177.96 112.632 181.928 112.504 184.936 111.416C188.072 110.328 188.904 108.344 188.904 104.376V95.864H213.544V88.888ZM251.816 103.288V90.424H270.952V83.064H251.816V71.8H273.384V64.376H251.816V52.856H243.816V64.376H233.96C235.048 61.432 236.072 58.424 236.968 55.352L229.096 53.624C226.92 62.328 222.76 71.16 217.768 76.536C219.688 77.56 223.08 79.864 224.616 81.08C226.728 78.584 228.712 75.32 230.568 71.8H243.816V83.064H226.472V90.424H243.816V103.288H219.112V110.776H276.648V103.288H251.816ZM328.04 59C328.04 57.08 329.64 55.544 331.56 55.544C333.48 55.544 335.016 57.08 335.016 59C335.016 60.92 333.48 62.456 331.56 62.456C329.64 62.456 328.04 60.92 328.04 59ZM324.136 59C324.136 63.096 327.464 66.424 331.56 66.424C335.656 66.424 338.92 63.096 338.92 59C338.92 54.904 335.656 51.576 331.56 51.576C327.464 51.576 324.136 54.904 324.136 59ZM315.304 56.504H305.832C306.088 57.592 306.408 60.408 306.408 62.072V67.192H290.152C288.104 67.192 285.864 66.936 283.944 66.68V75.192C285.736 75 288.232 74.936 290.152 74.936H306.408V75C306.408 78.008 306.408 98.296 306.344 100.664C306.28 102.328 305.64 102.968 303.976 102.968C302.44 102.968 299.624 102.712 296.872 102.2L297.64 110.136C300.904 110.52 304.616 110.712 308.072 110.712C312.616 110.712 314.728 108.408 314.728 104.696V74.936H329.704C331.432 74.936 333.928 75 335.976 75.128V66.744C334.248 67 331.432 67.192 329.64 67.192H314.728V62.072C314.728 60.472 315.176 57.4 315.304 56.504ZM300.264 84.024L293.032 80.632C290.408 86.008 285.288 93.048 281 97.144L287.912 101.88C291.432 98.104 297.32 89.72 300.264 84.024ZM327.784 80.44L320.808 84.216C323.88 88.12 328.424 95.864 331.176 101.368L338.728 97.272C336.168 92.6 331.048 84.536 327.784 80.44ZM347.048 77.368V87.416C349.416 87.224 353.704 87.096 357.352 87.096H391.72C394.408 87.096 397.672 87.352 399.208 87.416V77.368C397.544 77.496 394.728 77.752 391.72 77.752H357.352C354.024 77.752 349.352 77.56 347.048 77.368ZM440.296 56.312L431.016 53.432C430.44 55.608 429.096 58.552 428.072 60.088C424.872 65.656 418.92 74.424 407.72 81.4L414.632 86.712C421.096 82.232 427.048 76.088 431.528 70.136H449.832C448.872 74.104 446.12 79.672 442.792 84.28C438.76 81.592 434.728 78.968 431.336 77.048L425.64 82.872C428.904 84.92 433.128 87.8 437.288 90.872C431.976 96.184 424.872 101.368 413.8 104.76L421.224 111.224C431.208 107.448 438.504 102.008 444.136 96.056C446.76 98.168 449.128 100.152 450.856 101.752L456.936 94.52C455.08 92.984 452.584 91.128 449.832 89.144C454.376 82.744 457.576 75.896 459.304 70.712C459.88 69.112 460.712 67.384 461.416 66.168L454.888 62.136C453.48 62.584 451.304 62.84 449.32 62.84H436.328C437.096 61.432 438.696 58.552 440.296 56.312ZM498.792 105.592L504.168 110.008C504.744 109.496 505.512 108.856 506.92 108.088C514.088 104.44 523.304 97.528 528.616 90.616L523.688 83.576C519.4 89.784 513.064 94.84 507.88 97.08V63.608C507.88 60.728 508.264 58.232 508.328 58.04H498.792C498.856 58.232 499.304 60.664 499.304 63.544V100.856C499.304 102.584 499.048 104.376 498.792 105.592ZM469.16 104.632L476.968 109.816C482.408 104.952 486.44 98.68 488.36 91.448C490.088 84.984 490.28 71.48 490.28 63.928C490.28 61.24 490.664 58.424 490.728 58.104H481.32C481.704 59.704 481.896 61.432 481.896 63.992C481.896 71.736 481.832 83.832 480.04 89.336C478.248 94.776 474.792 100.664 469.16 104.632Z" fill="#4A4A68"/>
<path d="M165.72 23.272V19.24H170.52V17.704H165.72V14.296H171.12V12.688H158.856V14.296H164.04V17.704H159.528V19.24H164.04V23.272H158.52V24.784H171.6V23.272H165.72ZM167.232 20.296C168.096 21.112 169.104 22.264 169.56 23.008L170.784 22.288C170.304 21.544 169.248 20.44 168.36 19.672L167.232 20.296ZM156.936 26.992V10.672H172.992V26.992H156.936ZM155.16 9.016V29.848H156.936V28.648H172.992V29.848H174.84V9.016H155.16ZM199.008 12.616H189.864V7.936H188.04V12.616H179.136V14.344H199.008V12.616ZM186.36 25.408C186.168 22.72 185.28 18.76 184.008 15.616L182.352 16.048C183.528 19.144 184.44 23.2 184.56 25.84L186.36 25.408ZM192.312 27.04C193.464 24.016 194.808 19.504 195.72 15.856L193.704 15.472C193.008 19 191.664 23.968 190.464 27.04H178.344V28.792H199.704V27.04H192.312ZM207.192 23.656C206.16 25.312 204.408 26.92 202.704 28C203.136 28.264 203.808 28.864 204.144 29.152C205.8 27.928 207.696 26.056 208.896 24.16L207.192 23.656ZM221.568 22.312V20.728H204.456V22.312H212.112V27.928C212.112 28.216 212.016 28.312 211.632 28.312C211.296 28.336 210.024 28.336 208.632 28.288C208.896 28.744 209.184 29.368 209.256 29.848C211.056 29.848 212.208 29.848 212.928 29.608C213.672 29.344 213.888 28.912 213.888 27.952V22.312H221.568ZM208.032 16.432V17.992H218.016V16.432H208.032ZM216.648 24.496C218.304 25.888 220.344 27.904 221.28 29.176L222.792 28.24C221.784 26.944 219.72 25.024 218.04 23.656L216.648 24.496ZM223.344 12.664V11.032H212.088C212.544 10.096 212.952 9.136 213.264 8.152L211.344 7.912C211.056 8.944 210.624 10 210.072 11.032H202.656V12.664H209.04C207.408 14.944 204.984 17.056 201.696 18.544C202.104 18.832 202.656 19.432 202.92 19.888C206.688 18.064 209.352 15.472 211.152 12.664H214.872C216.72 15.64 219.864 18.352 222.936 19.672C223.224 19.24 223.776 18.568 224.16 18.256C221.376 17.2 218.472 15.04 216.72 12.664H223.344ZM231.288 16.024H243.192V18.88H231.288V16.024ZM243.192 11.8V14.536H231.288V11.8H243.192ZM245.304 20.272C243.84 21.52 241.488 23.128 239.544 24.184C238.512 23.128 237.696 21.88 237.096 20.44H244.992V10.192H237.816V7.888H235.992V10.192H229.464V27.544C228.504 27.688 227.616 27.832 226.872 27.928L227.304 29.656C230.136 29.176 234.192 28.48 238.032 27.808L237.912 26.152C235.68 26.536 233.352 26.92 231.288 27.256V20.44H235.32C237.24 25.576 240.888 28.624 246.888 29.848C247.104 29.392 247.608 28.648 247.992 28.264C244.992 27.736 242.544 26.728 240.672 25.24C242.64 24.184 244.968 22.696 246.72 21.352L245.304 20.272ZM263.952 23.848V26.296H258.048V23.848H263.952ZM265.536 27.616V22.552H256.464V28.816H258.048V27.616H265.536ZM270.432 19.504H251.712V29.824H253.416V21.016H268.656V27.664C268.656 28 268.584 28.12 268.176 28.12C267.744 28.168 266.4 28.168 264.864 28.12C265.104 28.576 265.344 29.296 265.44 29.776C267.432 29.776 268.68 29.776 269.472 29.512C270.216 29.2 270.432 28.672 270.432 27.712V19.504ZM265.656 16.696H256.296V14.368H265.656V16.696ZM254.592 13.096V17.992H267.432V13.096H254.592ZM261.768 10.192V7.912H259.968V10.192H250.656V11.752H271.344V10.192H261.768ZM277.968 25.384C279.336 26.344 280.944 27.784 281.688 28.768L283.104 27.688C282.288 26.704 280.68 25.336 279.288 24.424L277.968 25.384ZM278.352 17.512H284.064V19.456H278.352V17.512ZM278.352 14.296H284.064V16.24H278.352V14.296ZM291.672 14.296V16.24H285.792V14.296H291.672ZM291.672 19.456H285.792V17.512H291.672V19.456ZM295.704 22.624H290.28V20.8H293.424V13H285.792V11.368H295.152V9.832H285.792V7.96H284.064V9.832H274.92V11.368H284.064V13H276.672V20.8H288.552V22.624H274.32V24.16H288.552V27.904C288.552 28.24 288.408 28.336 288 28.36C287.616 28.384 286.128 28.384 284.544 28.336C284.784 28.792 285.048 29.44 285.144 29.896C287.184 29.896 288.48 29.896 289.272 29.632C290.064 29.392 290.28 28.936 290.28 27.952V24.16H295.704V22.624Z" fill="#4A4A68"/>
</svg>
